# xmcd
#
# Track frame offsets:
#	150
#	18697
#	29422
#	49147
#	63327
#	83175
#	93822
#	112037
#	121412
#	134237
#	167387
#	178187
#	193862
#	213137
#	223502
#	238492
#	257912
#	277637
#	294887
#
# Disc length: 4169
#
# Revision: 1
# Processed by: cddbd v1.5.1PL0 Copyright (c) Steve Scherf et al.
# Submitted via: CDex 1.40Release
# Normalized: r0:DSETVAR1,TDELIM( - )
#
DISCID=1c104713
DTITLE=Various Artist - Blow'n the Blues
DYEAR=1900
DGENRE=Blues
TTITLE0=Help Me (Tribute to Sonny Boy Williamson) - Junior Wells
TTITLE1=Messin' With The Kid - Junior Wells
TTITLE2=Stormy Monday Blues - Junior Wells
TTITLE3=Checking On My Baby - Junior Wells
TTITLE4=Early In The Morning - Junior Wells
TTITLE5=Cotton Crop Blues - James Cotton
TTITLE6=The Blues Keep Falling - James Cotton
TTITLE7=Rocket 88 - James Cotton
TTITLE8=Honest I Do - James Cotton
TTITLE9=Coast Blues - James Cotton
TTITLE10=Hey, Hey - Johnny Shines Blues Band
TTITLE11=Rockin' My Boogie - Big Walter Horton w/Memphis Charlie
TTITLE12=Chicken Shack - Charlie Musselwhite
TTITLE13=Juke - Charlie Musselwhite
TTITLE14=Christo Redemptor - Charlie Musselwhite
TTITLE15=My Baby's Sweeter - Charlie Musselwhite
TTITLE16=Angel Food Cake - The Siegel-Schwall Band
TTITLE17=Tell Me - The Seigel-Schwall Band
TTITLE18=Blues With A Feeling - Paul Butterfield Blues Band
EXTD=ID3G: 0
EXTT0=
EXTT1=
EXTT2=
EXTT3=
EXTT4=
EXTT5=
EXTT6=
EXTT7=
EXTT8=
EXTT9=
EXTT10=
EXTT11=
EXTT12=
EXTT13=
EXTT14=
EXTT15=
EXTT16=
EXTT17=
EXTT18=
PLAYORDER=
